<?xml version="1.0" encoding="UTF-8"?>
<!DOCTYPE svg PUBLIC "-//W3C//DTD SVG 1.1//EN" "http://www.w3.org/Graphics/SVG/1.1/DTD/svg11.dtd">
<!-- Creator: CorelDRAW 2020 (64-Bit) -->
<svg xmlns="http://www.w3.org/2000/svg" xml:space="preserve" width="5.06815in" height="4.93405in" version="1.1" style="shape-rendering:geometricPrecision; text-rendering:geometricPrecision; image-rendering:optimizeQuality; fill-rule:evenodd; clip-rule:evenodd"
viewBox="0 0 752.06 719.19"
 xmlns:xlink="http://www.w3.org/1999/xlink"
 xmlns:xodm="http://www.corel.com/coreldraw/odm/2003">
 <defs>
  <style type="text/css">
   <![CDATA[
    .fil3 {fill:#9D9E9E;fill-rule:nonzero}
    .fil2 {fill:#5B5B5B;fill-rule:nonzero}
    .fil1 {fill:url(#id0)}
    .fil0 {fill:url(#id1)}
   ]]>
  </style>
  <linearGradient id="id0" gradientUnits="userSpaceOnUse" x1="179.56" y1="41.75" x2="370.03" y2="140.66">
   <stop offset="0" style="stop-opacity:1; stop-color:#20B5D8"/>
   <stop offset="1" style="stop-opacity:1; stop-color:#8CEE98"/>
  </linearGradient>
  <linearGradient id="id1" gradientUnits="userSpaceOnUse" xlink:href="#id0" x1="303.1" y1="36.5" x2="479.57" y2="213.02">
  </linearGradient>
 </defs>
 <g id="Layer_x0020_1">
  <metadata id="CorelCorpID_0Corel-Layer"/>
  <g id="_2523849060624">
   <g>
    <path class="fil0" d="M410.57 176.21c-2.02,37.61 -0.67,79.05 -0.45,91.89 0,85.36 -107.69,85.58 -107.92,0.22l3.16 -127.71c1.12,-40.53 11.5,-85.36 43.7,-112.39 42.13,-35.13 110.62,-28.37 161.99,-26.35 85.4,2.92 81.56,110.81 -3.82,107.66 -93.73,-3.16 -93.5,7.21 -96.66,66.67l0 0z"/>
    <path class="fil1" d="M217.27 121.92c33.34,0 60.6,-27.25 60.6,-60.58 0,-33.34 -27.26,-60.59 -60.6,-60.59 -33.35,0 -60.61,27.25 -60.61,60.59 0,33.33 27.26,60.58 60.61,60.58l0 0z"/>
   </g>
   <g>
    <path class="fil2" d="M12.67 570.5c7.02,0 12.67,-5.65 12.67,-12.87l0 -60.04c2.34,-4.29 10.14,-6.82 16.76,-6.82 1.95,0 4.87,0.39 7.02,0.39 6.63,0 11.89,-3.31 11.89,-11.11 0,-8.19 -5.46,-12.09 -14.82,-12.09 -9.55,0 -16.57,5.26 -20.86,12.87 -0.59,-6.63 -6.04,-11.7 -12.67,-11.7 -7.02,0 -12.67,5.85 -12.67,12.87l0 75.63c0,7.21 5.65,12.87 12.67,12.87zm76.61 0c7.02,0 12.67,-5.65 12.67,-12.87l0 -75.63c0,-7.21 -5.65,-12.87 -12.67,-12.87 -7.02,0 -12.67,5.65 -12.67,12.87l0 75.63c0,7.21 5.65,12.87 12.67,12.87zm0 -111.11c8.38,0 15.21,-6.63 15.21,-15.01 0,-8.38 -6.82,-15.01 -15.21,-15.01 -8.38,0 -15.2,6.63 -15.2,15.01 0,8.38 6.82,15.01 15.2,15.01l0 0zm76.61 111.11c8.19,0 13.65,-4.87 16.18,-11.7l26.12 -71.74c0.78,-2.34 1.37,-4.29 1.37,-6.24 0,-6.43 -5.07,-11.7 -12.09,-11.7 -7.6,0 -10.92,4.09 -13.26,11.89l-18.13 58.48 -17.93 -58.48c-2.34,-7.8 -6.04,-11.89 -13.65,-11.89 -7.21,0 -12.28,5.26 -12.28,11.7 0,1.95 0.58,3.9 1.37,6.24l26.12 71.74c2.53,6.82 7.99,11.7 16.18,11.7zm137.24 -3.51c3.9,-2.34 6.63,-7.41 4.68,-12.87 -2.14,-6.04 -7.99,-8.58 -14.04,-6.82 -5.26,1.56 -10.33,2.34 -15.59,2.34 -17.35,0 -26.71,-4.68 -28.27,-22.81l57.51 0c3.12,0 5.85,-2.53 5.85,-5.65 0,-37.04 -13.26,-53.22 -43.86,-53.22 -30.41,0 -45.03,16.57 -45.03,51.85 0,35.87 15.01,51.85 49.71,51.85 11.5,0 23.59,-1.36 29.05,-4.68zm-34.11 -80.31c12.09,0 18.13,6.82 18.91,22.81l-38.01 0c1.36,-16.96 8.38,-22.81 19.1,-22.81zm79.14 83.82c7.02,0 12.67,-5.65 12.67,-12.87l0 -60.04c2.34,-4.29 10.14,-6.82 16.76,-6.82 1.95,0 4.87,0.39 7.02,0.39 6.63,0 11.89,-3.31 11.89,-11.11 0,-8.19 -5.46,-12.09 -14.82,-12.09 -9.55,0 -16.57,5.26 -20.86,12.87 -0.58,-6.63 -6.04,-11.7 -12.67,-11.7 -7.02,0 -12.67,5.85 -12.67,12.87l0 75.63c0,7.21 5.65,12.87 12.67,12.87zm107.22 -5.07c0,-2.92 -1.95,-4.68 -4.87,-4.68l-1.95 0c-11.7,0 -17.35,-5.46 -17.35,-18.32l0 -59.65 26.32 0c2.92,0 4.87,-1.95 4.87,-4.87 0,-2.92 -1.95,-4.87 -4.87,-4.87l-26.32 0 0 -38.01c0,-3.31 -2.34,-5.65 -5.65,-5.65 -3.31,0 -5.65,2.34 -5.65,5.65l0 38.01 -10.33 0c-2.92,0 -4.87,1.95 -4.87,4.87 0,2.93 1.95,4.87 4.87,4.87l10.33 0 0 61.8c0,18.13 9.55,25.93 28.66,25.93 3.9,0 6.82,-1.36 6.82,-5.07zm92.59 1.37c5.26,-2.34 7.21,-5.07 5.85,-8.58 -1.17,-2.73 -4.09,-3.31 -6.43,-2.14 -7.6,3.7 -15.21,5.46 -24.37,5.46 -20.86,0 -31,-10.92 -31.38,-38.4l62.77 0c1.95,0 3.31,-1.36 3.31,-3.31 0,-33.92 -11.89,-48.73 -38.6,-48.73 -26.71,0 -38.99,15.79 -38.99,50.29 0,34.89 13.25,49.9 44.25,49.9 7.02,0 16.57,-1.17 23.59,-4.48zm-28.65 -85.97c17.93,0 26.71,10.14 26.71,32.94l-54.19 0c1.17,-24.17 11.11,-32.94 27.49,-32.94zm64.13 40.55c0,34.5 13.06,49.9 41.52,49.9 8.77,0 19.1,-2.14 23,-5.07 2.73,-1.95 3.51,-4.48 2.14,-6.82 -1.56,-2.53 -3.9,-2.93 -6.63,-1.76 -5.46,2.34 -11.11,3.9 -18.32,3.9 -21.05,0 -30.22,-11.89 -30.22,-40.35 0,-28.46 9.16,-40.35 30.22,-40.35 7.21,0 12.87,1.56 18.32,3.9 2.73,1.17 5.07,0.78 6.63,-1.75 1.37,-2.34 0.59,-4.87 -2.14,-6.82 -3.9,-2.92 -14.23,-5.07 -23,-5.07 -28.46,0 -41.52,15.21 -41.52,50.29zm162.97 49.12c3.31,0 5.65,-2.34 5.65,-5.65l0 -59.85c0,-22.81 -13.06,-33.92 -34.11,-33.92 -11.31,0 -19.49,3.7 -26.12,11.31l0 -47.37c0,-3.12 -2.73,-5.65 -5.65,-5.65 -3.12,0 -5.65,2.54 -5.65,5.65l0 129.83c0,3.31 2.34,5.65 5.65,5.65 3.31,0 5.65,-2.34 5.65,-5.65l0 -74.47c6.04,-7.41 14.23,-9.55 24.17,-9.55 15.79,0 24.76,8.38 24.76,25.15l0 58.87c0,3.31 2.34,5.65 5.65,5.65z"/>
    <path class="fil3" d="M182.09 699.39c3.42,0 6.2,-2.78 6.2,-6.29l0 -54.4c0,-3.52 -2.78,-6.29 -6.2,-6.29 -3.42,0 -6.2,2.78 -6.2,6.29l0 54.4c0,3.52 2.78,6.29 6.2,6.29zm39.69 0.55c15.54,0 22.39,-8.33 22.39,-24.61 0,-16.28 -6.85,-24.61 -22.39,-24.61 -15.54,0 -22.39,8.33 -22.39,24.61 0,16.28 6.85,24.61 22.39,24.61zm0 -10.45c-7.22,0 -10.18,-4.35 -10.18,-14.16 0,-9.81 2.96,-14.15 10.18,-14.15 7.22,0 10.18,4.35 10.18,14.15 0,9.81 -2.96,14.16 -10.18,14.16zm49.32 9.9c3.42,0 6.2,-2.78 6.2,-6.29l0 -49.41 12.12 0c3.05,0 5.46,-2.41 5.46,-5.37 0,-2.96 -2.41,-5.37 -5.46,-5.37l-36.64 0c-3.05,0 -5.46,2.41 -5.46,5.37 0,2.96 2.41,5.37 5.46,5.37l12.12 0 0 49.41c0,3.52 2.78,6.29 6.2,6.29zm63.75 0.37c12.21,0 17.95,-4.07 17.95,-13.69 0,-7.03 -3.89,-10.36 -15.91,-13.69 -7.59,-2.13 -9.62,-3.89 -9.62,-7.4 0,-4.72 2.96,-6.85 9.71,-6.85 3.61,0 6.66,0.74 9.53,1.94 1.57,0.65 3.7,0.19 4.44,-1.85 0.65,-1.85 -0.28,-3.61 -1.76,-4.26 -3.42,-1.48 -7.03,-2.13 -11.66,-2.13 -11.84,0 -17.58,4.16 -17.58,13.51 0,7.03 3.89,10.36 15.91,13.69 7.59,2.13 9.62,3.89 9.62,7.4 0,4.81 -3.15,7.03 -10.64,7.03 -3.89,0 -7.22,-0.83 -11.01,-2.41 -1.57,-0.65 -3.52,0.09 -4.26,1.76 -0.83,1.85 0.19,3.79 1.67,4.44 3.98,1.76 8.14,2.5 13.6,2.5zm34.42 -0.37c2.04,0 3.7,-1.66 3.7,-3.79l0 -39.6c0,-2.13 -1.66,-3.79 -3.7,-3.79 -2.04,0 -3.7,1.66 -3.7,3.79l0 39.6c0,2.13 1.67,3.79 3.7,3.79zm0 -56.81c2.87,0 5,-2.22 5,-5.09 0,-2.87 -2.13,-5.09 -5,-5.09 -2.87,0 -5,2.22 -5,5.09 0,2.87 2.13,5.09 5,5.09l0 0zm22.2 56.81c2.04,0 3.7,-1.66 3.7,-3.79l0 -33.12c2.31,-3.05 6.01,-4.35 10.18,-4.35 7.31,0 10.92,3.89 10.92,11.47l0 26c0,2.13 1.67,3.79 3.7,3.79 2.04,0 3.7,-1.66 3.7,-3.79l0 -27.48c0,-1.85 -0.19,-3.42 -0.46,-4.91 3.24,-3.98 6.75,-5.09 10.64,-5.09 7.31,0 10.92,3.89 10.92,11.47l0 26c0,2.13 1.67,3.79 3.7,3.79 2.04,0 3.7,-1.66 3.7,-3.79l0 -27.48c0,-11.38 -6.76,-16.28 -17.12,-16.28 -5.37,0 -10.36,2.41 -13.51,7.03 -2.78,-4.81 -8.05,-7.03 -14.99,-7.03 -4.72,0 -8.51,1.85 -11.38,5.46l0 -1.3c0,-2.13 -1.66,-3.79 -3.7,-3.79 -2.04,0 -3.7,1.66 -3.7,3.79l0 39.6c0,2.13 1.66,3.79 3.7,3.79zm112.69 -24.06c0,-16.65 -7.03,-23.5 -18.78,-23.5 -4.72,0 -8.51,1.76 -11.38,5.37l0 -1.2c0,-2.13 -1.66,-3.79 -3.7,-3.79 -2.04,0 -3.7,1.66 -3.7,3.79l0 59.4c0,2.13 1.67,3.79 3.7,3.79 2.04,0 3.7,-1.66 3.7,-3.79l0 -16.75c3.15,0.74 5.18,1.11 8.23,1.11 14.34,0 21.93,-8.14 21.93,-24.43l0 0zm-7.59 -0.19c0,12.49 -4.63,18.32 -15.91,18.32 -2.59,0 -4.9,-0.55 -6.66,-1.3l0 -29.7c2.31,-3.05 6.01,-4.35 10.18,-4.35 8.51,0 12.4,5.55 12.4,17.02l0 0zm24.33 24.24c2.04,0 3.7,-1.66 3.7,-3.79l0 -59.4c0,-2.13 -1.67,-3.79 -3.7,-3.79 -2.04,0 -3.7,1.67 -3.7,3.79l0 59.4c0,2.13 1.67,3.79 3.7,3.79zm50.52 -1.85c2.31,-1.11 3.33,-2.78 2.5,-4.81 -0.65,-1.48 -2.4,-2.31 -4.26,-1.48 -3.05,1.39 -6.29,2.22 -10.08,2.22 -9.44,0 -14.06,-4.44 -14.43,-16.01l29.05 0c1.02,0 1.94,-0.92 1.94,-1.94 0,-16.47 -5.83,-23.69 -19.06,-23.69 -13.23,0 -19.43,7.59 -19.43,23.96 0,16.75 6.57,23.96 21.84,23.96 3.98,0 8.79,-0.65 11.94,-2.22zm-14.34 -39.6c7.68,0 11.47,4.16 12.03,13.6l-23.87 0c0.65,-10.18 4.9,-13.6 11.84,-13.6z"/>
   </g>
  </g>
 </g>
</svg>
